#!OML:ASF F:\VICON\USERDATA\INSTALL\rory3\rory3.ASF
:FULLY-SPECIFIED
:DEGREES
266
root 2.61623 17.3806 0.338525 -9.0327 -42.9705 11.1803
lowerback 7.22404 -0.910395 -9.59522
upperback 2.15315 -1.9371 -0.40238
thorax -1.50075 -0.98451 5.12816
lowerneck -20.9633 -4.46961 -10.0498
upperneck 27.913 -5.11376 6.46202
head 13.3433 -2.51407 3.32728
rclavicle 3.16565e-014 8.74653e-015
rhumerus -36.0865 -2.32501 -77.4468
rradius 28.8363
rwrist 7.1496
rhand -13.5375 11.9187
rfingers 7.12502
rthumb 12.575 -17.6828
lclavicle 3.16565e-014 8.74653e-015
lhumerus -31.7132 -5.97445 83.9883
lradius 41.9038
lwrist -6.30985
lhand -17.4718 23.7463
lfingers 7.12502
lthumb 8.78004 53.5437
rfemur -32.5262 -2.18767 11.724
rtibia 22.4229
rfoot -9.72894 -4.29138
rtoes -8.19357
lfemur 23.5941 -3.7239 -32.2527
ltibia 6.36111e-015
lfoot -7.00076 -11.5889
ltoes 0.295131
267
root 2.47522 17.3897 0.444146 -8.64294 -42.6283 10.9097
lowerback 7.05249 -1.01668 -9.47884
upperback 2.09498 -2.05003 -0.312022
thorax -1.44912 -1.04053 5.16139
lowerneck -20.9646 -4.47658 -9.97614
upperneck 27.9353 -5.14406 6.43656
head 13.3527 -2.52307 3.29956
rclavicle -1.35919e-013 3.02153e-014
rhumerus -36.088 -3.01424 -76.982
rradius 28.3335
rwrist 7.61292
rhand -13.2221 11.9606
rfingers 7.12502
rthumb 12.8791 -17.622
lclavicle -1.35919e-013 3.02153e-014
lhumerus -31.781 -6.28437 84.274
lradius 41.3911
lwrist -6.27287
lhand -16.6715 23.9358
lfingers 7.12502
lthumb 9.55233 53.6992
rfemur -32.0653 -1.60052 11.5861
rtibia 22.202
rfoot -9.66098 -3.90686
rtoes -7.73131
lfemur 23.9924 -4.25903 -32.075
ltibia -2.8625e-014
lfoot -6.26549 -11.6456
ltoes 0.435743
268
root 2.32875 17.3962 0.551654 -8.3092 -42.313 10.7568
lowerback 6.76802 -1.11847 -9.48467
upperback 2.07512 -2.15225 -0.24483
thorax -1.29196 -1.09787 5.23279
lowerneck -21.0544 -4.53074 -9.98616
upperneck 27.9772 -5.23738 6.51431
head 13.4016 -2.55311 3.31583
rclavicle 3.96078e-014 -7.15625e-015
rhumerus -35.9838 -3.85532 -76.5272
rradius 27.7737
rwrist 8.12959
rhand -13.1934 11.6025
rfingers 7.12502
rthumb 12.9067 -17.9784
lclavicle 3.96078e-014 -7.15625e-015
lhumerus -31.8614 -6.49437 84.4774
lradius 41.046
lwrist -6.12761
lhand -16.1935 24.0565
lfingers 7.12502
lthumb 10.0135 53.7983
rfemur -31.5798 -0.930163 11.4089
rtibia 21.9961
rfoot -9.41828 -3.83447
rtoes -7.68149
lfemur 24.3535 -4.76212 -31.9656
ltibia 3.81667e-014
lfoot -5.49154 -11.7885
ltoes 0.15053
269
root 2.18036 17.4065 0.660809 -7.89553 -42.1082 10.402
lowerback 6.53919 -1.22278 -9.30842
upperback 2.03193 -2.25217 -0.120603
thorax -1.19569 -1.15009 5.26337
lowerneck -20.9721 -4.56358 -10.138
upperneck 27.9024 -5.27416 6.63566
head 13.3663 -2.56963 3.38242
rclavicle 6.71892e-014 2.10712e-014
rhumerus -36.0656 -4.26162 -76.1394
rradius 27.4149
rwrist 8.39419
rhand -13.4332 11.1852
rfingers 7.12502
rthumb 12.6756 -18.4102
lclavicle 6.71892e-014 2.10712e-014
lhumerus -32.0649 -6.44769 84.7045
lradius 40.658
lwrist -6.29374
lhand -16.5902 24.0832
lfingers 7.12502
lthumb 9.63071 53.843
rfemur -30.9903 -0.13532 11.4368
rtibia 21.8314
rfoot -9.32102 -3.9502
rtoes -6.63575
lfemur 24.7683 -5.17215 -31.6755
ltibia -3.49861e-014
lfoot -4.51655 -11.8685
ltoes -0.299825
270
root 2.03027 17.4236 0.773497 -7.43382 -41.9679 9.9589
lowerback 6.38055 -1.31836 -9.03129
upperback 1.93093 -2.3453 0.00436313
thorax -1.20467 -1.19169 5.24091
lowerneck -20.8838 -4.5342 -10.0764
upperneck 27.8822 -5.25308 6.60328
head 13.3338 -2.55992 3.36287
rclavicle 6.26172e-015 1.11319e-014
rhumerus -36.2298 -5.15432 -75.582
rradius 27.054
rwrist 9.07531
rhand -13.3629 10.6141
rfingers 7.12502
rthumb 12.7433 -18.977
lclavicle 6.26172e-015 1.11319e-014
lhumerus -32.3967 -6.43307 84.9051
lradius 40.2733
lwrist -6.50585
lhand -16.7431 23.8001
lfingers 7.12502
lthumb 9.48323 53.5668
rfemur -30.3991 0.445327 11.6969
rtibia 21.7535
rfoot -9.38623 -4.06132
rtoes -4.29073
lfemur 25.1832 -5.52579 -31.3031
ltibia -3.49861e-014
lfoot -3.3849 -11.8792
ltoes -0.277656
271
root 1.87977 17.4384 0.889115 -6.93715 -41.8457 9.39816
lowerback 6.28211 -1.35883 -8.63076
upperback 1.84816 -2.36339 0.144615
thorax -1.24481 -1.1953 5.16217
lowerneck -20.9276 -4.56827 -10.0468
upperneck 27.9136 -5.32012 6.63142
head 13.363 -2.58179 3.35735
rclavicle -1.21259e-014 -7.55382e-015
rhumerus -36.4005 -6.24385 -74.9747
rradius 26.6595
rwrist 9.69466
rhand -13.4096 9.95157
rfingers 7.12502
rthumb 12.6983 -19.6424
lclavicle -1.21259e-014 -7.55382e-015
lhumerus -32.6885 -6.63253 85.1263
lradius 39.9624
lwrist -6.61905
lhand -16.105 23.734
lfingers 7.12502
lthumb 10.0988 53.4717
rfemur -29.8131 0.48985 12.3448
rtibia 21.7827
rfoot -9.28798 -4.21213
rtoes -1.71496
lfemur 25.6303 -5.87057 -30.8148
ltibia -4.45278e-014
lfoot -2.06226 -12.0132
ltoes 1.20815
272
root 1.72671 17.4596 1.00126 -6.56768 -41.6362 9.06465
lowerback 6.23054 -1.38719 -8.45712
upperback 1.74685 -2.38628 0.251056
thorax -1.32116 -1.19954 5.17781
lowerneck -20.9953 -4.64215 -10.065
upperneck 27.9404 -5.42558 6.66345
head 13.4015 -2.62421 3.35414
rclavicle -1.18973e-013 -6.75868e-015
rhumerus -36.6932 -6.75626 -74.59
rradius 26.552
rwrist 9.54323
rhand -13.4994 9.24433
rfingers 7.12502
rthumb 12.6118 -20.355
lclavicle -1.18973e-013 -6.75868e-015
lhumerus -32.9558 -6.85376 85.3715
lradius 39.6719
lwrist -6.82876
lhand -15.5918 23.7874
lfingers 7.12502
lthumb 10.5939 53.5004
rfemur -29.3355 0.397644 12.8209
rtibia 21.887
rfoot -8.55086 -4.64446
rtoes -0.494352
lfemur 26.0128 -6.28123 -30.5052
ltibia 7.63333e-014
lfoot -0.609491 -12.1129
ltoes 2.09508
273
root 1.57491 17.4939 1.11434 -6.19438 -41.5185 8.78274
lowerback 6.13988 -1.41117 -8.28031
upperback 1.65956 -2.39964 0.327882
thorax -1.36391 -1.20116 5.15816
lowerneck -21.1962 -4.679 -9.95787
upperneck 28.0618 -5.49766 6.64406
head 13.4976 -2.64417 3.31628
rclavicle -3.45885e-014 9.14409e-015
rhumerus -36.9484 -7.30496 -74.2078
rradius 26.4817
rwrist 9.45023
rhand -13.5556 8.96902
rfingers 7.12502
rthumb 12.5576 -20.6336
lclavicle -3.45885e-014 9.14409e-015
lhumerus -33.1987 -6.90904 85.5602
lradius 39.3591
lwrist -7.20895
lhand -15.2302 23.6759
lfingers 7.12502
lthumb 10.9427 53.3707
rfemur -29.0631 0.523821 13.1484
rtibia 22.0515
rfoot -6.94204 -5.31343
rtoes -3.16286
lfemur 26.3358 -6.59128 -30.2519
ltibia -5.40694e-014
lfoot 0.668413 -12.1802
ltoes -0.616658
274
root 1.42606 17.5322 1.23428 -5.79505 -41.5421 8.32723
lowerback 6.15886 -1.39047 -7.85116
upperback 1.55542 -2.34831 0.420295
thorax -1.50513 -1.1663 5.01348
lowerneck -21.2523 -4.68414 -9.81659
upperneck 28.1046 -5.53461 6.58463
head 13.5239 -2.65233 3.26204
rclavicle -6.55492e-014 1.15295e-014
rhumerus -37.2891 -7.87851 -73.7799
rradius 26.3716
rwrist 9.30165
rhand -13.712 9.16163
rfingers 7.12502
rthumb 12.4068 -20.4502
lclavicle -6.55492e-014 1.15295e-014
lhumerus -33.5745 -6.9696 85.774
lradius 39.043
lwrist -7.71135
lhand -15.0607 23.2771
lfingers 7.12502
lthumb 11.1062 52.9632
rfemur -28.8418 0.776302 13.592
rtibia 22.3284
rfoot -5.40178 -5.97478
rtoes -6.44339
lfemur 26.7361 -6.75601 -29.8697
ltibia -1.01778e-013
lfoot 2.23084 -12.2346
ltoes -2.70242
